# xmcd
#
# Track frame offsets:
#	150
#	23220
#	39973
#	55422
#	76047
#	95872
#	114884
#	130936
#	155516
#	176832
#	193981
#	213537
#	231883
#	250863
#
# Disc length: 3563 seconds
#
# Revision: 0
# Processed by: cddbd v1.5.2PL0 Copyright (c) Steve Scherf et al.
# Submitted via: EasyCDDAExtractor 9.1.0.1
#
DISCID=be0de90e
DTITLE=Various Artist - ENERGIA
DYEAR=2008
DGENRE=Pop
TTITLE0=ΡΑΚΙΝΤΖΗΣ - ENERGIA
TTITLE1=ΡΑΚΙΝΤΖΗΣ - ΠΡΟΚΑΛΕΙΣ
TTITLE2=ΡΑΚΙΝΤΖΗΣ and TRILOGY - ΝΗΣΑΚΙ
TTITLE3=ΡΑΚΙΝΤΖΗΣ - ΧΥΜΑ ΣΤΟ ΚΥΜΑ
TTITLE4=ΡΑΚΙΝΤΖΗΣ - ΠΡΟΣΕΧΕ
TTITLE5=ΡΑΚΙΝΤΖΗΣ - ΤΗΝ ΤΥΧΗ ΜΟΥ
TTITLE6=ΡΑΚΙΝΤΖΗΣ - ΨΕΜΑΤΑ
TTITLE7=ΡΑΚΙΝΤΖΗΣ - ΠΛΥΝΤΗΡΙΟ
TTITLE8=ΡΑΚΙΝΤΖΗΣ - ΜΑΣΚΕΣ
TTITLE9=ΡΑΚΙΝΤΖΗΣ - ΧΑΙΡΟΜΑΙ
TTITLE10=ΡΑΚΙΝΤΖΗΣ - CLICK
TTITLE11=ΡΑΚΙΝΤΖΗΣ - ΤΟΙΧΟΙ
TTITLE12=ΡΑΚΙΝΤΖΗΣ - ΑΝΤΡΥ
TTITLE13=ΡΑΚΙΝΤΖΗΣ - ΖΩΗ ΜΟΥ
EXTD=
EXTT0=
EXTT1=
EXTT2=
EXTT3=
EXTT4=
EXTT5=
EXTT6=
EXTT7=
EXTT8=
EXTT9=
EXTT10=
EXTT11=
EXTT12=
EXTT13=
PLAYORDER=
